# xmcd
#
# Track frame offsets: 
#        150
#        9393
#        18766
#        32441
#        47347
#        58644
#        71063
#        85281
#        94091
#        105346
#
# Disc length: 1564 seconds
#
# Revision: 1
# Processed by: cddbd v1.5.2PL0 Copyright (c) Steve Scherf et al.
# Submitted via: ExactAudioCopy v0.95b4
#
DISCID=69061a0a
DTITLE=Various Artist - Best Of Country - Disc 2
DYEAR=2004
DGENRE=Country
TTITLE0=Charley Pride - Kiss An Angel Good Mornin'
TTITLE1=Dottie West - Country Sunshine
TTITLE2=Porter Wagoner and Dolly Parton - Daddy Was An Old Time Preacher
TTITLE2=Man
TTITLE3=Jerry Reed - Lord, Mr. Ford
TTITLE4=Connie Smith - Just One Time
TTITLE5=Waylon Jennings - We Had It All
TTITLE6=Chet Atkins - Fiddlin' Around
TTITLE7=Danny Davis and The Nashville Brass - Wabash Cannonball
TTITLE8=Johnny Bush - Whiskey River
TTITLE9=Dickey Lee - A Never Ending Song Of Love
EXTD=All tracks originally recorded prior to 1972.  BMG Special Produc
EXTD=ts.
EXTT0=
EXTT1=
EXTT2=
EXTT3=
EXTT4=
EXTT5=
EXTT6=
EXTT7=
EXTT8=
EXTT9=
PLAYORDER=
